<svg version="1.1" id="Layer_1" xmlns="http://www.w3.org/2000/svg" xmlns:xlink="http://www.w3.org/1999/xlink" x="0px" y="0px"
	 width="100%" viewBox="0 0 512 512" enable-background="new 0 0 512 512" xml:space="preserve">
<path fill="#FFFFFF" opacity="1.000000" stroke="none" 
	d="
M292.000000,513.000000 
	C194.690292,513.000000 97.880577,513.000000 1.035435,513.000000 
	C1.035435,342.398590 1.035435,171.797195 1.035435,1.097890 
	C171.559723,1.097890 342.119537,1.097890 512.839661,1.097890 
	C512.839661,171.666550 512.839661,342.333252 512.839661,513.000000 
	C439.463837,513.000000 365.981903,513.000000 292.000000,513.000000 
M266.086700,191.934555 
	C257.388489,191.921127 248.689896,191.862274 239.992355,191.933777 
	C238.317062,191.947556 236.645981,192.472305 234.198166,192.865143 
	C227.501587,191.250443 220.862961,188.646378 214.095032,188.250000 
	C203.616180,187.636276 193.601807,185.880493 183.977356,181.763901 
	C181.755707,180.813660 179.467667,180.015869 177.261398,179.032959 
	C170.505142,176.022964 163.773819,172.957016 156.921646,169.142960 
	C155.069351,166.835297 148.012222,163.740417 144.209061,163.920120 
	C143.131302,163.912048 142.053528,163.903976 140.566513,163.467239 
	C137.926239,163.628937 137.599579,164.911713 138.796295,167.611755 
	C138.709503,168.031525 138.622696,168.451294 137.769760,168.970688 
	C136.882141,169.887009 135.255981,170.779297 135.225250,171.723511 
	C135.004471,178.507248 134.958130,185.308258 135.263443,192.085449 
	C135.311157,193.144577 137.427216,194.110535 138.793900,195.731918 
	C138.840759,196.160309 138.887634,196.588715 138.447113,197.497726 
	C137.187469,201.598038 141.087387,201.827423 143.036438,203.201477 
	C147.653381,206.456345 152.558548,209.302353 157.347198,212.313629 
	C157.569122,211.890686 157.791061,211.467728 158.790207,210.958191 
	C160.126160,211.435837 161.537842,211.767883 162.784912,212.416443 
	C168.028687,215.143555 173.040421,218.414825 178.485809,220.629517 
	C184.266464,222.980560 190.572006,224.018326 196.417206,226.238174 
	C208.527832,230.837479 221.025711,233.281906 234.331833,234.759781 
	C235.028107,235.151886 235.721436,235.879303 236.421127,235.885483 
	C245.878769,235.969086 255.337845,235.996445 264.794586,235.878860 
	C265.570740,235.869217 266.332520,234.704498 268.020752,234.013977 
	C277.579285,235.485977 286.425934,231.864655 295.488678,229.992142 
	C298.578156,229.353790 301.442627,226.230499 304.341827,226.325302 
	C313.505188,226.624939 320.345551,220.239487 328.795685,218.778839 
	C330.497131,218.484726 332.234283,217.905319 333.742920,217.073059 
	C340.215271,213.502625 346.630951,209.827225 353.017059,206.103973 
	C355.000488,204.947586 356.680908,202.754639 358.750916,202.363312 
	C364.335144,201.307678 365.308960,197.706497 365.781281,192.669815 
	C365.931274,185.727890 366.096130,178.786163 366.181244,171.843445 
	C366.184937,171.540619 365.456604,171.228821 364.999786,170.122070 
	C365.129333,165.979477 362.923218,164.280121 359.078766,165.019836 
	C357.175201,165.386063 355.432068,166.594681 353.621216,167.432785 
	C346.876587,170.554321 340.257416,173.998077 333.343872,176.684418 
	C329.249359,178.275391 326.485382,182.358887 321.199371,181.974930 
	C317.737488,181.723434 314.107330,183.515457 310.581177,184.495331 
	C306.626953,185.594162 302.663696,187.899414 298.777618,187.751801 
	C290.105896,187.422424 282.186462,190.229645 273.143982,191.816376 
	C271.100952,191.907379 269.057892,191.998383 266.086700,191.934555 
M190.309433,82.268356 
	C189.072189,83.110916 187.711685,83.821136 186.628967,84.829582 
	C185.281036,86.085052 184.162369,87.586662 182.284882,89.160309 
	C182.078842,90.747925 181.872787,92.335533 181.686478,94.663109 
	C181.608322,95.393890 181.530167,96.124680 180.699570,96.969826 
	C179.889145,97.400787 178.399582,97.796211 178.374878,98.268272 
	C178.162079,102.335945 178.078232,106.425827 178.330170,110.485863 
	C178.368469,111.103477 180.329315,111.601807 181.640884,112.758392 
	C181.701752,113.186569 181.762604,113.614746 181.266907,114.578835 
	C181.597031,117.883743 181.927170,121.188660 182.277740,124.698105 
	C184.179672,124.810402 185.607773,124.894722 187.722519,125.085045 
	C189.474869,125.985863 191.227203,126.886681 193.295990,128.545044 
	C197.970184,128.880417 202.643250,129.237595 207.322388,129.475800 
	C207.520950,129.485901 207.775665,128.392609 208.683731,127.674263 
	C215.532562,125.193077 218.761002,120.128708 219.959915,112.991188 
	C220.968643,111.903587 222.681488,110.913338 222.847931,109.709297 
	C223.268265,106.668945 222.846832,103.523369 223.037689,100.436966 
	C223.222763,97.443977 221.677322,96.760841 219.043701,96.118385 
	C218.817688,87.305252 215.393890,82.482826 208.651947,81.249107 
	C203.968781,80.841454 199.290497,80.283646 194.599045,80.131485 
	C193.422562,80.093323 192.203796,81.358078 190.309433,82.268356 
M269.937408,84.929939 
	C269.292725,85.961243 268.165100,86.954140 268.079590,88.029900 
	C267.381592,96.806541 266.382599,105.605614 266.505981,114.383377 
	C266.577301,119.456032 267.010498,125.565903 274.749542,125.895874 
	C275.855011,125.943008 276.909546,127.185402 278.311249,128.617691 
	C282.685364,130.929443 288.759796,130.608582 291.748901,127.972527 
	C296.864685,125.894806 301.268860,123.154091 302.594391,116.586021 
	C303.139191,114.997314 303.683960,113.408607 304.466705,110.952431 
	C304.415894,107.022362 304.365112,103.092293 304.611816,98.349113 
	C303.080353,93.889938 301.548859,89.430763 299.540863,84.463425 
	C298.618439,84.346031 297.696045,84.228645 296.523773,83.494385 
	C296.432373,82.624496 296.340973,81.754601 296.176514,80.189621 
	C295.133484,81.403503 294.625000,81.995239 293.648407,82.111687 
	C293.434753,82.050102 293.221069,81.988518 292.655762,81.202438 
	C288.475677,80.788879 284.297668,80.352669 280.114929,79.968170 
	C275.990448,79.589058 272.904694,81.338120 269.937408,84.929939 
M194.509979,385.000214 
	C181.077393,385.333740 167.636002,385.485474 154.218750,386.135742 
	C151.081253,386.287811 148.031784,388.147919 144.930405,389.188232 
	C142.422241,390.029572 141.762329,391.703766 141.931839,394.295471 
	C142.192383,398.278351 142.323486,402.323730 141.920410,406.282654 
	C141.388641,411.505646 145.206909,413.313019 148.631622,413.788483 
	C157.579437,415.030640 166.660110,415.925079 175.685226,415.903076 
	C235.950775,415.756104 296.215942,415.371887 356.480225,414.925995 
	C361.280914,414.890503 366.073822,413.808624 370.812592,413.220215 
	C370.812592,404.394836 370.812592,396.437073 370.812592,388.569061 
	C367.509491,387.677582 364.435913,386.270660 361.296722,386.104584 
	C350.044556,385.509399 338.770844,385.074768 327.504089,385.046021 
	C283.505188,384.933777 239.505768,385.000214 194.509979,385.000214 
M207.500031,368.999786 
	C215.150604,368.999695 222.802155,369.073883 230.451447,368.974609 
	C235.986069,368.902802 240.909760,366.573608 240.108810,359.582245 
	C239.544601,354.657379 239.793625,349.604645 240.060974,344.629517 
	C240.299164,340.197113 237.458496,338.232880 234.143646,337.243500 
	C230.905579,336.277039 227.355118,336.105896 223.934357,336.051300 
	C214.622971,335.902618 205.302124,335.811646 195.996445,336.085785 
	C191.813766,336.209015 187.666885,337.322784 183.488113,337.866852 
	C179.299789,338.412201 178.180405,341.380219 178.047287,344.863739 
	C177.863251,349.679901 178.404541,354.551270 177.897812,359.320648 
	C177.267792,365.250275 181.308472,368.861023 187.540390,368.974213 
	C193.858353,369.089020 200.180023,368.999695 207.500031,368.999786 
M141.880219,337.399261 
	C129.236557,337.268738 116.592033,337.013733 103.949936,337.102936 
	C101.104729,337.123016 97.968605,337.810486 95.522362,339.182190 
	C93.575790,340.273712 91.432739,342.761292 91.204124,344.830994 
	C90.603943,350.264435 90.886017,355.811249 91.036263,361.306885 
	C91.172699,366.297302 94.256310,369.863739 99.082283,369.923981 
	C114.412468,370.115448 129.749390,370.159607 145.077682,369.901855 
	C150.576111,369.809418 151.991928,367.704956 151.998535,362.005920 
	C152.004135,357.172821 151.665298,352.311218 152.073700,347.512878 
	C152.786560,339.137360 149.146606,337.836212 141.880219,337.399261 
M395.500000,279.000214 
	C386.838837,279.617950 378.179993,280.271606 369.515350,280.835938 
	C366.012512,281.064087 365.147583,283.534729 365.061005,286.251831 
	C364.875824,292.064484 364.820862,297.894653 365.058563,303.703491 
	C365.279419,309.100098 367.741058,311.902557 372.429047,311.945221 
	C387.556030,312.082947 402.692322,312.265869 417.809631,311.859009 
	C423.629333,311.702362 426.655396,308.565918 426.103424,303.224396 
	C425.610504,298.454254 426.000671,293.592926 425.999542,288.771851 
	C425.998169,283.037598 424.105927,280.591278 418.209198,280.069275 
	C410.997650,279.430847 403.738312,279.332214 395.500000,279.000214 
M371.146698,367.962738 
	C386.128937,367.975067 401.111267,368.021942 416.093384,367.985138 
	C423.578125,367.966736 425.998810,365.439331 425.999695,357.939453 
	C426.000214,353.444733 426.010132,348.949951 425.997009,344.455261 
	C425.981873,339.268982 423.783722,336.375916 418.511597,336.082367 
	C407.616211,335.475677 396.696564,335.196869 385.783508,335.065216 
	C381.201538,335.009918 376.610229,335.661224 372.024414,336.007874 
	C367.049133,336.383942 364.965942,339.279419 364.994293,344.057220 
	C365.023895,349.051178 365.107361,354.048492 364.967255,359.038727 
	C364.850677,363.190552 366.119324,366.314514 371.146698,367.962738 
M330.040894,366.442719 
	C330.692871,365.185944 331.870789,363.944641 331.908386,362.669739 
	C332.099976,356.175873 332.522156,349.606964 331.714966,343.209259 
	C331.427521,340.931000 328.006317,337.402344 325.845947,337.272797 
	C311.618835,336.419708 297.284088,335.409973 283.109406,336.345154 
	C274.224457,336.931366 270.352692,337.142303 270.975861,349.305878 
	C271.137665,352.464020 271.361420,355.688141 270.926361,358.793640 
	C269.969604,365.622589 274.885742,369.028473 281.044800,369.011749 
	C295.043732,368.973694 309.043854,369.082886 323.040802,368.911652 
	C325.184509,368.885468 327.313843,367.685120 330.040894,366.442719 
M239.995529,306.917725 
	C239.996918,300.917908 239.565536,294.876587 240.135483,288.931274 
	C240.598221,284.104492 237.973755,282.233429 234.351913,281.279907 
	C231.057098,280.412476 227.543411,280.107849 224.118423,280.054352 
	C214.287735,279.900726 204.447754,279.811798 194.622620,280.091431 
	C190.596237,280.205994 186.594543,281.307953 182.589127,282.004028 
	C179.302643,282.575165 177.952087,284.653412 177.985977,287.899872 
	C178.041641,293.232483 177.803146,298.575226 178.048584,303.897095 
	C178.392090,311.344910 181.480301,312.098907 186.460449,312.052185 
	C201.792038,311.908325 217.126770,311.908569 232.458054,312.067749 
	C236.024780,312.104767 238.549652,311.145447 239.995529,306.917725 
M151.999725,296.510559 
	C151.999710,294.349792 152.000092,292.189026 151.999664,290.028259 
	C151.998230,282.933350 151.738617,282.482635 144.706680,282.039490 
	C136.645126,281.531464 128.556534,280.949738 120.493507,281.107330 
	C112.323074,281.267029 104.177536,282.443726 96.005203,282.871094 
	C91.903015,283.085602 91.121048,285.629089 91.037018,288.777527 
	C90.904007,293.760376 90.979958,298.749451 91.005386,303.735718 
	C91.041328,310.782990 92.504738,312.799194 99.306656,312.914917 
	C114.427635,313.172180 129.559128,313.175720 144.679977,312.914307 
	C151.631882,312.794128 151.998093,311.992828 151.999619,304.979950 
	C152.000168,302.486755 151.999725,299.993561 151.999725,296.510559 
M289.571259,280.000214 
	C284.743958,280.680695 279.804565,280.957794 275.147705,282.251617 
	C273.424561,282.730377 271.359833,285.509644 271.191345,287.395233 
	C270.675537,293.166962 270.587677,299.053101 271.126587,304.820679 
	C271.627930,310.186005 272.883789,311.965424 278.361267,311.982239 
	C294.152466,312.030762 309.943909,311.998993 325.735260,311.999573 
	C330.035492,311.999725 332.037689,309.810059 332.009430,305.554077 
	C331.969696,299.570221 331.692871,293.564880 332.102448,287.608948 
	C332.397644,283.316559 329.445404,282.026337 326.689362,281.185028 
	C323.467194,280.201385 319.904755,280.104156 316.482880,280.047607 
	C307.841583,279.904663 299.196289,280.000214 289.571259,280.000214 
M252.487839,256.998779 
	C247.878143,256.998779 243.268433,256.998779 238.658737,256.998779 
	C238.681778,257.433990 238.704803,257.869171 238.727844,258.304382 
	C247.254425,258.304382 255.781006,258.304382 265.542328,258.304382 
	C264.009277,257.442810 263.729156,257.151245 263.442719,257.144897 
	C260.120514,257.071289 256.797363,257.040741 252.487839,256.998779 
z"/>
<path fill="#25B34E" opacity="1.000000" stroke="none" 
	d="
M138.535904,168.871063 
	C138.622696,168.451294 138.709503,168.031525 139.156311,167.171051 
	C140.002792,165.785522 140.489288,164.840714 140.975769,163.895905 
	C142.053528,163.903976 143.131302,163.912048 144.759674,164.260208 
	C145.856415,165.302567 146.263916,166.382629 146.972366,166.642639 
	C150.280380,167.856598 153.671432,168.844254 157.032806,169.912827 
	C163.773819,172.957016 170.505142,176.022964 177.261398,179.032959 
	C179.467667,180.015869 181.755707,180.813660 183.977356,181.763901 
	C193.601807,185.880493 203.616180,187.636276 214.095032,188.250000 
	C220.862961,188.646378 227.501587,191.250443 234.650970,193.233154 
	C236.732956,194.063431 238.356888,194.902542 239.992172,194.925339 
	C248.984375,195.050735 257.979370,194.976456 267.406647,194.984451 
	C270.038818,194.301651 273.861877,196.955475 274.001648,192.011169 
	C282.186462,190.229645 290.105896,187.422424 298.777618,187.751801 
	C302.663696,187.899414 306.626953,185.594162 310.581177,184.495331 
	C314.107330,183.515457 317.737488,181.723434 321.199371,181.974930 
	C326.485382,182.358887 329.249359,178.275391 333.343872,176.684418 
	C340.257416,173.998077 346.876587,170.554321 353.621216,167.432785 
	C355.432068,166.594681 357.175201,165.386063 359.078766,165.019836 
	C362.923218,164.280121 365.129333,165.979477 364.841125,170.901978 
	C364.804108,178.791214 364.925781,185.900558 365.047424,193.009903 
	C365.308960,197.706497 364.335144,201.307678 358.750916,202.363312 
	C356.680908,202.754639 355.000488,204.947586 353.017059,206.103973 
	C346.630951,209.827225 340.215271,213.502625 333.742920,217.073059 
	C332.234283,217.905319 330.497131,218.484726 328.795685,218.778839 
	C320.345551,220.239487 313.505188,226.624939 304.341827,226.325302 
	C301.442627,226.230499 298.578156,229.353790 295.488678,229.992142 
	C286.425934,231.864655 277.579285,235.485977 267.173798,233.863434 
	C257.595398,233.472275 248.864914,233.153290 240.131851,233.048447 
	C238.058868,233.023575 235.977249,233.716125 233.899597,234.078644 
	C221.025711,233.281906 208.527832,230.837479 196.417206,226.238174 
	C190.572006,224.018326 184.266464,222.980560 178.485809,220.629517 
	C173.040421,218.414825 168.028687,215.143555 162.784912,212.416443 
	C161.537842,211.767883 160.126160,211.435837 158.098297,210.798218 
	C156.864349,209.829117 156.498489,208.762558 155.752228,208.251938 
	C150.188675,204.445099 144.549774,200.748352 138.934494,197.017105 
	C138.887634,196.588715 138.840759,196.160309 138.783539,194.957245 
	C138.694092,185.745407 138.615005,177.308228 138.535904,168.871063 
z"/>
<path fill="#666666" opacity="1.000000" stroke="none" 
	d="
M195.008270,385.000214 
	C239.505768,385.000214 283.505188,384.933777 327.504089,385.046021 
	C338.770844,385.074768 350.044556,385.509399 361.296722,386.104584 
	C364.435913,386.270660 367.509491,387.677582 370.812592,388.569061 
	C370.812592,396.437073 370.812592,404.394836 370.812592,413.220215 
	C366.073822,413.808624 361.280914,414.890503 356.480225,414.925995 
	C296.215942,415.371887 235.950775,415.756104 175.685226,415.903076 
	C166.660110,415.925079 157.579437,415.030640 148.631622,413.788483 
	C145.206909,413.313019 141.388641,411.505646 141.920410,406.282654 
	C142.323486,402.323730 142.192383,398.278351 141.931839,394.295471 
	C141.762329,391.703766 142.422241,390.029572 144.930405,389.188232 
	C148.031784,388.147919 151.081253,386.287811 154.218750,386.135742 
	C167.636002,385.485474 181.077393,385.333740 195.008270,385.000214 
z"/>
<path fill="#666666" opacity="1.000000" stroke="none" 
	d="
M207.000046,368.999786 
	C200.180023,368.999695 193.858353,369.089020 187.540390,368.974213 
	C181.308472,368.861023 177.267792,365.250275 177.897812,359.320648 
	C178.404541,354.551270 177.863251,349.679901 178.047287,344.863739 
	C178.180405,341.380219 179.299789,338.412201 183.488113,337.866852 
	C187.666885,337.322784 191.813766,336.209015 195.996445,336.085785 
	C205.302124,335.811646 214.622971,335.902618 223.934357,336.051300 
	C227.355118,336.105896 230.905579,336.277039 234.143646,337.243500 
	C237.458496,338.232880 240.299164,340.197113 240.060974,344.629517 
	C239.793625,349.604645 239.544601,354.657379 240.108810,359.582245 
	C240.909760,366.573608 235.986069,368.902802 230.451447,368.974609 
	C222.802155,369.073883 215.150604,368.999695 207.000046,368.999786 
z"/>
<path fill="#666666" opacity="1.000000" stroke="none" 
	d="
M142.256531,337.645355 
	C149.146606,337.836212 152.786560,339.137360 152.073700,347.512878 
	C151.665298,352.311218 152.004135,357.172821 151.998535,362.005920 
	C151.991928,367.704956 150.576111,369.809418 145.077682,369.901855 
	C129.749390,370.159607 114.412468,370.115448 99.082283,369.923981 
	C94.256310,369.863739 91.172699,366.297302 91.036263,361.306885 
	C90.886017,355.811249 90.603943,350.264435 91.204124,344.830994 
	C91.432739,342.761292 93.575790,340.273712 95.522362,339.182190 
	C97.968605,337.810486 101.104729,337.123016 103.949936,337.102936 
	C116.592033,337.013733 129.236557,337.268738 142.256531,337.645355 
z"/>
<path fill="#666666" opacity="1.000000" stroke="none" 
	d="
M395.999817,279.000183 
	C403.738312,279.332214 410.997650,279.430847 418.209198,280.069275 
	C424.105927,280.591278 425.998169,283.037598 425.999542,288.771851 
	C426.000671,293.592926 425.610504,298.454254 426.103424,303.224396 
	C426.655396,308.565918 423.629333,311.702362 417.809631,311.859009 
	C402.692322,312.265869 387.556030,312.082947 372.429047,311.945221 
	C367.741058,311.902557 365.279419,309.100098 365.058563,303.703491 
	C364.820862,297.894653 364.875824,292.064484 365.061005,286.251831 
	C365.147583,283.534729 366.012512,281.064087 369.515350,280.835938 
	C378.179993,280.271606 386.838837,279.617950 395.999817,279.000183 
z"/>
<path fill="#666666" opacity="1.000000" stroke="none" 
	d="
M370.723846,367.854797 
	C366.119324,366.314514 364.850677,363.190552 364.967255,359.038727 
	C365.107361,354.048492 365.023895,349.051178 364.994293,344.057220 
	C364.965942,339.279419 367.049133,336.383942 372.024414,336.007874 
	C376.610229,335.661224 381.201538,335.009918 385.783508,335.065216 
	C396.696564,335.196869 407.616211,335.475677 418.511597,336.082367 
	C423.783722,336.375916 425.981873,339.268982 425.997009,344.455261 
	C426.010132,348.949951 426.000214,353.444733 425.999695,357.939453 
	C425.998810,365.439331 423.578125,367.966736 416.093384,367.985138 
	C401.111267,368.021942 386.128937,367.975067 370.723846,367.854797 
z"/>
<path fill="#666666" opacity="1.000000" stroke="none" 
	d="
M329.745361,366.735291 
	C327.313843,367.685120 325.184509,368.885468 323.040802,368.911652 
	C309.043854,369.082886 295.043732,368.973694 281.044800,369.011749 
	C274.885742,369.028473 269.969604,365.622589 270.926361,358.793640 
	C271.361420,355.688141 271.137665,352.464020 270.975861,349.305878 
	C270.352692,337.142303 274.224457,336.931366 283.109406,336.345154 
	C297.284088,335.409973 311.618835,336.419708 325.845947,337.272797 
	C328.006317,337.402344 331.427521,340.931000 331.714966,343.209259 
	C332.522156,349.606964 332.099976,356.175873 331.908386,362.669739 
	C331.870789,363.944641 330.692871,365.185944 329.745361,366.735291 
z"/>
<path fill="#666666" opacity="1.000000" stroke="none" 
	d="
M239.980896,307.360779 
	C238.549652,311.145447 236.024780,312.104767 232.458054,312.067749 
	C217.126770,311.908569 201.792038,311.908325 186.460449,312.052185 
	C181.480301,312.098907 178.392090,311.344910 178.048584,303.897095 
	C177.803146,298.575226 178.041641,293.232483 177.985977,287.899872 
	C177.952087,284.653412 179.302643,282.575165 182.589127,282.004028 
	C186.594543,281.307953 190.596237,280.205994 194.622620,280.091431 
	C204.447754,279.811798 214.287735,279.900726 224.118423,280.054352 
	C227.543411,280.107849 231.057098,280.412476 234.351913,281.279907 
	C237.973755,282.233429 240.598221,284.104492 240.135483,288.931274 
	C239.565536,294.876587 239.996918,300.917908 239.980896,307.360779 
z"/>
<path fill="#666666" opacity="1.000000" stroke="none" 
	d="
M151.999725,297.005463 
	C151.999725,299.993561 152.000168,302.486755 151.999619,304.979950 
	C151.998093,311.992828 151.631882,312.794128 144.679977,312.914307 
	C129.559128,313.175720 114.427635,313.172180 99.306656,312.914917 
	C92.504738,312.799194 91.041328,310.782990 91.005386,303.735718 
	C90.979958,298.749451 90.904007,293.760376 91.037018,288.777527 
	C91.121048,285.629089 91.903015,283.085602 96.005203,282.871094 
	C104.177536,282.443726 112.323074,281.267029 120.493507,281.107330 
	C128.556534,280.949738 136.645126,281.531464 144.706680,282.039490 
	C151.738617,282.482635 151.998230,282.933350 151.999664,290.028259 
	C152.000092,292.189026 151.999710,294.349792 151.999725,297.005463 
z"/>
<path fill="#666666" opacity="1.000000" stroke="none" 
	d="
M290.061951,280.000214 
	C299.196289,280.000214 307.841583,279.904663 316.482880,280.047607 
	C319.904755,280.104156 323.467194,280.201385 326.689362,281.185028 
	C329.445404,282.026337 332.397644,283.316559 332.102448,287.608948 
	C331.692871,293.564880 331.969696,299.570221 332.009430,305.554077 
	C332.037689,309.810059 330.035492,311.999725 325.735260,311.999573 
	C309.943909,311.998993 294.152466,312.030762 278.361267,311.982239 
	C272.883789,311.965424 271.627930,310.186005 271.126587,304.820679 
	C270.587677,299.053101 270.675537,293.166962 271.191345,287.395233 
	C271.359833,285.509644 273.424561,282.730377 275.147705,282.251617 
	C279.804565,280.957794 284.743958,280.680695 290.061951,280.000214 
z"/>
<path fill="#25B34F" opacity="1.000000" stroke="none" 
	d="
M277.987640,127.874619 
	C276.909546,127.185402 275.855011,125.943008 274.749542,125.895874 
	C267.010498,125.565903 266.577301,119.456032 266.505981,114.383377 
	C266.382599,105.605614 267.381592,96.806541 268.079590,88.029900 
	C268.165100,86.954140 269.292725,85.961243 270.674896,84.888557 
	C277.210968,84.555794 283.019745,84.383316 288.801025,83.889526 
	C290.248474,83.765892 291.607635,82.608963 293.007385,81.926933 
	C293.221069,81.988518 293.434753,82.050102 294.008728,82.590538 
	C295.170593,83.416672 295.972107,83.763962 296.773621,84.111252 
	C297.696045,84.228645 298.618439,84.346031 299.757141,85.161774 
	C300.353027,89.562637 300.544067,93.301506 301.245697,96.941963 
	C301.419861,97.845627 303.246979,98.430702 304.314301,99.162216 
	C304.365112,103.092293 304.415894,107.022362 304.035217,111.446335 
	C299.321167,112.421455 302.645355,115.338707 301.989380,116.981331 
	C301.268860,123.154091 296.864685,125.894806 291.207520,127.599945 
	C286.349640,125.674141 282.057098,124.589699 277.987640,127.874619 
z"/>
<path fill="#25B34E" opacity="1.000000" stroke="none" 
	d="
M182.944717,88.981995 
	C184.162369,87.586662 185.281036,86.085052 186.628967,84.829582 
	C187.711685,83.821136 189.072189,83.110916 190.830841,82.506714 
	C196.969528,83.054375 202.585999,83.385483 208.206924,83.599388 
	C208.451096,83.608688 208.736237,82.541046 209.002289,81.975067 
	C215.393890,82.482826 218.817688,87.305252 219.027313,97.005997 
	C219.052109,102.938171 219.093277,107.982735 219.134460,113.027298 
	C218.761002,120.128708 215.532562,125.193077 208.166916,127.391418 
	C202.686646,125.751701 197.730591,124.554382 192.979553,127.787498 
	C191.227203,126.886681 189.474869,125.985863 187.343475,124.636963 
	C185.250793,120.806885 183.537140,117.424904 181.823471,114.042923 
	C181.762604,113.614746 181.701752,113.186569 181.660767,111.997543 
	C181.604446,106.442955 181.528229,101.649208 181.452026,96.855461 
	C181.530167,96.124680 181.608322,95.393890 181.952255,94.134155 
	C186.188202,92.650093 182.465393,90.485794 182.944717,88.981995 
z"/>
<path fill="#C9ECD4" opacity="1.000000" stroke="none" 
	d="
M138.152832,168.920868 
	C138.615005,177.308228 138.694092,185.745407 138.680023,194.651077 
	C137.427216,194.110535 135.311157,193.144577 135.263443,192.085449 
	C134.958130,185.308258 135.004471,178.507248 135.225250,171.723511 
	C135.255981,170.779297 136.882141,169.887009 138.152832,168.920868 
z"/>
<path fill="#53C274" opacity="1.000000" stroke="none" 
	d="
M266.973419,194.970703 
	C257.979370,194.976456 248.984375,195.050735 239.992172,194.925339 
	C238.356888,194.902542 236.732956,194.063431 235.038361,193.181244 
	C236.645981,192.472305 238.317062,191.947556 239.992355,191.933777 
	C248.689896,191.862274 257.388489,191.921127 266.547913,192.372452 
	C266.997192,193.530457 266.985321,194.250580 266.973419,194.970703 
z"/>
<path fill="#5AC47A" opacity="1.000000" stroke="none" 
	d="
M234.115723,234.419220 
	C235.977249,233.716125 238.058868,233.023575 240.131851,233.048447 
	C248.864914,233.153290 257.595398,233.472275 266.713928,233.894699 
	C266.332520,234.704498 265.570740,235.869217 264.794586,235.878860 
	C255.337845,235.996445 245.878769,235.969086 236.421127,235.885483 
	C235.721436,235.879303 235.028107,235.151886 234.115723,234.419220 
z"/>
<path fill="#60C77E" opacity="1.000000" stroke="none" 
	d="
M292.831573,81.564682 
	C291.607635,82.608963 290.248474,83.765892 288.801025,83.889526 
	C283.019745,84.383316 277.210968,84.555794 271.032593,84.782944 
	C272.904694,81.338120 275.990448,79.589058 280.114929,79.968170 
	C284.297668,80.352669 288.475677,80.788879 292.831573,81.564682 
z"/>
<path fill="#C9ECD4" opacity="1.000000" stroke="none" 
	d="
M138.690796,197.257416 
	C144.549774,200.748352 150.188675,204.445099 155.752228,208.251938 
	C156.498489,208.762558 156.864349,209.829117 157.709686,210.841507 
	C157.791061,211.467728 157.569122,211.890686 157.347198,212.313629 
	C152.558548,209.302353 147.653381,206.456345 143.036438,203.201477 
	C141.087387,201.827423 137.187469,201.598038 138.690796,197.257416 
z"/>
<path fill="#60C77E" opacity="1.000000" stroke="none" 
	d="
M208.827118,81.612091 
	C208.736237,82.541046 208.451096,83.608688 208.206924,83.599388 
	C202.585999,83.385483 196.969528,83.054375 191.178345,82.384552 
	C192.203796,81.358078 193.422562,80.093323 194.599045,80.131485 
	C199.290497,80.283646 203.968781,80.841454 208.827118,81.612091 
z"/>
<path fill="#DDF3E4" opacity="1.000000" stroke="none" 
	d="
M219.547180,113.009247 
	C219.093277,107.982735 219.052109,102.938171 219.089340,97.430168 
	C221.677322,96.760841 223.222763,97.443977 223.037689,100.436966 
	C222.846832,103.523369 223.268265,106.668945 222.847931,109.709297 
	C222.681488,110.913338 220.968643,111.903587 219.547180,113.009247 
z"/>
<path fill="#60C77E" opacity="1.000000" stroke="none" 
	d="
M365.414368,192.839859 
	C364.925781,185.900558 364.804108,178.791214 364.875854,171.301529 
	C365.456604,171.228821 366.184937,171.540619 366.181244,171.843445 
	C366.096130,178.786163 365.931274,185.727890 365.414368,192.839859 
z"/>
<path fill="#C9ECD4" opacity="1.000000" stroke="none" 
	d="
M181.075790,96.912643 
	C181.528229,101.649208 181.604446,106.442955 181.540802,111.695999 
	C180.329315,111.601807 178.368469,111.103477 178.330170,110.485863 
	C178.078232,106.425827 178.162079,102.335945 178.374878,98.268272 
	C178.399582,97.796211 179.889145,97.400787 181.075790,96.912643 
z"/>
<path fill="#AFE3BE" opacity="1.000000" stroke="none" 
	d="
M193.137772,128.166275 
	C197.730591,124.554382 202.686646,125.751701 207.827164,127.460945 
	C207.775665,128.392609 207.520950,129.485901 207.322388,129.475800 
	C202.643250,129.237595 197.970184,128.880417 193.137772,128.166275 
z"/>
<path fill="#F3FBF5" opacity="1.000000" stroke="none" 
	d="
M252.981155,256.998779 
	C256.797363,257.040741 260.120514,257.071289 263.442719,257.144897 
	C263.729156,257.151245 264.009277,257.442810 265.542328,258.304382 
	C255.781006,258.304382 247.254425,258.304382 238.727844,258.304382 
	C238.704803,257.869171 238.681778,257.433990 238.658737,256.998779 
	C243.268433,256.998779 247.878143,256.998779 252.981155,256.998779 
z"/>
<path fill="#AFE3BE" opacity="1.000000" stroke="none" 
	d="
M278.149445,128.246155 
	C282.057098,124.589699 286.349640,125.674141 290.833496,127.587395 
	C288.759796,130.608582 282.685364,130.929443 278.149445,128.246155 
z"/>
<path fill="#5AC47A" opacity="1.000000" stroke="none" 
	d="
M304.463074,98.755661 
	C303.246979,98.430702 301.419861,97.845627 301.245697,96.941963 
	C300.544067,93.301506 300.353027,89.562637 299.995361,85.415848 
	C301.548859,89.430763 303.080353,93.889938 304.463074,98.755661 
z"/>
<path fill="#C9ECD4" opacity="1.000000" stroke="none" 
	d="
M156.977234,169.527893 
	C153.671432,168.844254 150.280380,167.856598 146.972366,166.642639 
	C146.263916,166.382629 145.856415,165.302567 145.164032,164.261429 
	C148.012222,163.740417 155.069351,166.835297 156.977234,169.527893 
z"/>
<path fill="#C9ECD4" opacity="1.000000" stroke="none" 
	d="
M181.545197,114.310883 
	C183.537140,117.424904 185.250793,120.806885 187.000153,124.583954 
	C185.607773,124.894722 184.179672,124.810402 182.277740,124.698105 
	C181.927170,121.188660 181.597031,117.883743 181.545197,114.310883 
z"/>
<path fill="#3CBA60" opacity="1.000000" stroke="none" 
	d="
M267.406647,194.984436 
	C266.985321,194.250580 266.997192,193.530457 267.011963,192.449860 
	C269.057892,191.998383 271.100952,191.907379 273.572815,191.913773 
	C273.861877,196.955475 270.038818,194.301651 267.406647,194.984436 
z"/>
<path fill="#5AC47A" opacity="1.000000" stroke="none" 
	d="
M302.291870,116.783676 
	C302.645355,115.338707 299.321167,112.421455 303.916260,111.880066 
	C303.683960,113.408607 303.139191,114.997314 302.291870,116.783676 
z"/>
<path fill="#C9ECD4" opacity="1.000000" stroke="none" 
	d="
M182.614807,89.071152 
	C182.465393,90.485794 186.188202,92.650093 181.942383,93.764175 
	C181.872787,92.335533 182.078842,90.747925 182.614807,89.071152 
z"/>
<path fill="#C9ECD4" opacity="1.000000" stroke="none" 
	d="
M140.771149,163.681580 
	C140.489288,164.840714 140.002792,165.785522 139.193176,166.849350 
	C137.599579,164.911713 137.926239,163.628937 140.771149,163.681580 
z"/>
<path fill="#5AC47A" opacity="1.000000" stroke="none" 
	d="
M296.648682,83.802818 
	C295.972107,83.763962 295.170593,83.416672 294.242798,82.828186 
	C294.625000,81.995239 295.133484,81.403503 296.176514,80.189621 
	C296.340973,81.754601 296.432373,82.624496 296.648682,83.802818 
z"/>
</svg>