<svg version="1.1" id="Layer_1" xmlns="http://www.w3.org/2000/svg" xmlns:xlink="http://www.w3.org/1999/xlink" x="0px" y="0px"
	 width="100%" viewBox="0 0 390 390" enable-background="new 0 0 390 390" xml:space="preserve">
<path fill="#EBEEF1" opacity="1.000000" stroke="none" 
	d="
M214.000000,391.000000 
	C142.666672,391.000000 71.833359,391.000000 1.000029,391.000000 
	C1.000019,261.000031 1.000019,131.000076 1.000010,1.000081 
	C130.999939,1.000054 260.999878,1.000054 390.999878,1.000027 
	C390.999908,130.999924 390.999908,260.999847 390.999939,390.999878 
	C332.166656,391.000000 273.333344,391.000000 214.000000,391.000000 
M252.500000,18.793079 
	C182.518967,18.793575 112.536690,19.012648 42.557945,18.612976 
	C28.298559,18.531536 20.559254,29.129400 20.712523,40.208088 
	C21.161943,72.693092 20.850529,105.188332 20.884357,137.679504 
	C20.898561,151.323334 28.566282,158.951385 42.248032,158.953278 
	C143.387360,158.967331 244.526688,158.967590 345.666016,158.953018 
	C359.212280,158.951065 366.983185,151.130142 366.997314,137.470123 
	C367.030701,105.145569 367.026611,72.820930 366.999573,40.496361 
	C366.987732,26.317284 359.530945,18.811886 345.475128,18.801584 
	C314.816742,18.779116 284.158386,18.793415 252.500000,18.793079 
M97.009285,352.468933 
	C97.010139,355.135590 96.952805,357.803772 97.024261,360.468536 
	C97.163109,365.645874 100.985046,370.277588 105.966904,370.930847 
	C110.234444,371.490448 114.558128,371.952637 118.852890,371.919952 
	C146.153641,371.712402 173.452896,371.315338 200.753494,371.080139 
	C206.565628,371.030060 212.380783,371.514893 218.195419,371.538330 
	C237.669312,371.616882 257.143646,371.612122 276.617706,371.588623 
	C278.093872,371.586823 279.574432,371.215790 281.044647,370.967285 
	C287.317017,369.907288 290.948151,365.648285 290.967194,359.257416 
	C290.994049,350.257507 291.005585,341.257324 290.962341,332.257538 
	C290.934448,326.448944 287.879364,322.416687 282.244568,321.075012 
	C279.525543,320.427582 276.674896,320.037537 273.883240,320.034424 
	C220.216705,319.974945 166.550064,319.990082 112.883446,319.991730 
	C111.716919,319.991760 110.529175,319.874207 109.387268,320.047852 
	C101.462440,321.252930 96.151550,324.298401 96.916039,333.486328 
	C97.411835,339.445099 97.009323,345.478577 97.009285,352.468933 
M148.992004,191.631226 
	C148.989380,180.512833 146.433762,177.992569 135.145645,177.989944 
	C125.828209,177.987778 116.510422,177.942429 107.193466,178.010208 
	C100.598923,178.058182 97.060753,181.604950 97.020157,188.221237 
	C96.955849,198.702942 96.958145,209.185593 97.017578,219.667358 
	C97.056496,226.531754 100.572777,229.960617 107.581703,229.996338 
	C117.897163,230.048920 128.213333,230.053284 138.528717,229.994583 
	C145.477127,229.955063 148.943726,226.471573 148.980026,219.551956 
	C149.027161,210.567535 148.991791,201.582672 148.992004,191.631226 
M219.639908,222.616959 
	C219.745926,210.821945 220.053314,199.023834 219.871719,187.233246 
	C219.782944,181.468903 216.115692,178.159042 210.152130,178.054672 
	C199.346466,177.865524 188.531647,177.840286 177.727341,178.066208 
	C171.348633,178.199600 168.045319,181.876953 168.006866,188.249191 
	C167.943634,198.725296 167.944305,209.202332 168.006897,219.678452 
	C168.046768,226.351730 171.526520,229.936569 178.074554,229.985229 
	C188.716751,230.064316 199.359985,229.986542 210.002686,230.014709 
	C214.719650,230.027191 217.941345,228.024307 219.639908,222.616959 
M141.716827,249.113754 
	C130.079514,249.070877 118.441833,248.955536 106.805031,249.014435 
	C100.608673,249.045792 97.066330,252.748413 97.024345,259.094666 
	C96.953957,269.735779 96.951401,280.378021 97.024620,291.019073 
	C97.065987,297.031464 100.407104,300.753601 106.521370,300.900391 
	C117.156715,301.155640 127.809151,301.203705 138.441727,300.897705 
	C145.990082,300.680481 148.981110,297.077026 148.989349,289.405212 
	C148.999878,279.595001 148.847122,269.781830 149.050903,259.975830 
	C149.157501,254.846359 147.221954,251.346176 141.716827,249.113754 
M290.987030,198.513092 
	C290.986420,195.350723 291.031342,192.187561 290.976105,189.026138 
	C290.846863,181.625336 287.304352,178.062469 279.843567,178.009659 
	C269.691223,177.937790 259.537781,177.951004 249.385208,178.006302 
	C242.489182,178.043869 239.031082,181.547211 238.996521,188.519302 
	C238.945343,198.838348 238.945526,209.158005 238.996292,219.477051 
	C239.030624,226.453552 242.474640,229.952423 249.382126,229.994415 
	C259.534607,230.056091 269.687805,230.035202 279.840546,230.003571 
	C287.020050,229.981201 290.883545,226.177338 290.968536,218.981796 
	C291.045197,212.491516 290.986176,205.999649 290.987030,198.513092 
M187.513321,248.979736 
	C184.519958,248.980820 181.526276,248.953857 178.533295,248.988647 
	C171.565018,249.069641 168.048950,252.476364 168.004822,259.356842 
	C167.941895,269.168030 167.976089,278.979950 167.987900,288.791534 
	C167.998428,297.527740 171.198181,300.875336 179.927277,300.969330 
	C189.571442,301.073212 199.218094,301.050262 208.862762,300.972595 
	C216.318954,300.912598 219.909531,297.348419 219.963654,289.960327 
	C220.036728,279.982941 220.039032,270.004242 219.963684,260.026917 
	C219.906662,252.477036 216.510864,249.090378 208.963196,248.999191 
	C202.145966,248.916824 195.326950,248.980438 187.513321,248.979736 
M244.712265,249.683304 
	C240.520172,251.756897 238.854156,255.115036 238.930328,259.787659 
	C239.098343,270.093445 238.940674,280.404022 239.001526,290.712189 
	C239.039154,297.088135 242.325607,300.776489 248.695892,300.913940 
	C259.331726,301.143524 269.982513,301.190582 280.614868,300.888153 
	C287.242065,300.699615 290.880219,296.820831 290.950562,290.534698 
	C291.067780,280.061249 291.080353,269.584290 290.942017,259.111328 
	C290.868866,253.571548 287.146118,249.188629 281.843750,249.106979 
	C269.724609,248.920395 257.597687,249.237976 244.712265,249.683304 
M313.629181,228.054214 
	C315.802490,228.698593 317.965729,229.856567 320.150879,229.899551 
	C330.289459,230.099014 340.434235,230.024979 350.576508,229.977676 
	C357.257568,229.946503 361.728455,225.983780 361.884552,219.364639 
	C362.127502,209.061768 362.125916,198.744507 361.875275,188.441925 
	C361.730103,182.474991 357.407928,178.129715 351.873901,178.054901 
	C341.234589,177.911041 330.589233,177.868225 319.951660,178.066498 
	C313.324280,178.190048 310.027771,181.853287 309.999084,188.529434 
	C309.954773,198.837997 309.779541,209.153900 310.127655,219.450882 
	C310.219543,222.169128 312.027283,224.829376 313.629181,228.054214 
M66.218399,229.991302 
	C74.989235,229.690842 77.956398,226.748962 77.988457,218.186050 
	C78.024612,208.529343 78.043816,198.872086 77.979691,189.215668 
	C77.931702,181.988068 74.085159,178.079575 66.921814,178.025208 
	C56.932552,177.949371 46.941822,177.947784 36.952614,178.027374 
	C30.397453,178.079605 26.086935,182.441391 26.040535,189.034012 
	C25.971403,198.856873 25.985098,208.680756 26.033747,218.503860 
	C26.072369,226.302505 29.829254,229.950974 37.807396,229.983017 
	C46.964600,230.019791 56.122066,229.992020 66.218399,229.991302 
M317.438629,300.631805 
	C328.582916,300.744720 339.727051,300.921173 350.871552,300.945953 
	C357.213440,300.960052 361.708801,296.913361 361.873779,290.525391 
	C362.140167,280.208740 362.112518,269.876556 361.883423,259.558167 
	C361.750580,253.573425 357.466827,249.133591 351.975403,249.053268 
	C341.321075,248.897400 330.660461,248.869934 320.007141,249.057587 
	C313.357361,249.174713 310.030121,252.825729 309.999725,259.490265 
	C309.953400,269.647156 310.158325,279.808441 309.916901,289.959808 
	C309.792328,295.197266 311.805115,298.563660 317.438629,300.631805 
M34.294834,300.864349 
	C44.943901,300.899780 55.593624,301.022034 66.241814,300.941437 
	C73.878944,300.883636 77.963646,296.704926 77.988678,289.205597 
	C78.020897,279.553741 78.012772,269.901672 77.991020,260.249725 
	C77.973381,252.425186 74.663940,249.072693 66.743500,249.017700 
	C56.925591,248.949539 47.106552,248.954468 37.288559,249.016388 
	C29.818811,249.063507 26.069572,252.909042 26.032141,260.503723 
	C25.986208,269.822632 26.239965,279.148987 25.941917,288.458588 
	C25.750643,294.433014 28.231949,298.278168 34.294834,300.864349 
z"/>
<path fill="#5897FF" opacity="1.000000" stroke="none" 
	d="
M253.000000,18.792885 
	C284.158386,18.793415 314.816742,18.779116 345.475128,18.801584 
	C359.530945,18.811886 366.987732,26.317284 366.999573,40.496361 
	C367.026611,72.820930 367.030701,105.145569 366.997314,137.470123 
	C366.983185,151.130142 359.212280,158.951065 345.666016,158.953018 
	C244.526688,158.967590 143.387360,158.967331 42.248032,158.953278 
	C28.566282,158.951385 20.898561,151.323334 20.884357,137.679504 
	C20.850529,105.188332 21.161943,72.693092 20.712523,40.208088 
	C20.559254,29.129400 28.298559,18.531536 42.557945,18.612976 
	C112.536690,19.012648 182.518967,18.793575 253.000000,18.792885 
M88.904922,118.160561 
	C88.904922,114.306557 88.904922,110.452553 88.904922,105.988449 
	C102.016129,114.904381 111.282837,104.977577 111.066391,94.911377 
	C111.019875,92.748062 111.159149,90.567345 110.935837,88.423485 
	C109.775749,77.285919 100.489914,72.838242 91.113960,78.874458 
	C90.454185,79.299217 89.795059,79.724983 89.851715,79.688438 
	C87.823723,78.409302 86.368561,77.491470 84.913391,76.573631 
	C84.297920,78.099960 83.167503,79.619972 83.148666,81.153633 
	C83.001328,93.145409 83.023201,105.140205 83.131859,117.132820 
	C83.143486,118.415207 84.045525,119.689529 84.534508,120.967598 
	C85.977242,120.332001 87.419975,119.696411 88.904922,118.160561 
M220.977875,67.653931 
	C220.971298,66.821213 221.287155,65.760338 220.892319,65.202385 
	C220.019760,63.969398 218.789536,62.989510 217.705231,61.906368 
	C216.841705,63.039745 215.241821,64.163589 215.226990,65.307961 
	C215.052322,78.796173 215.040543,92.288620 215.250381,105.775833 
	C215.267960,106.905815 217.196762,108.006058 218.237610,109.120117 
	C219.139603,108.031799 220.754456,106.984871 220.820465,105.848000 
	C221.109695,100.868134 220.936478,95.862144 220.957443,90.865753 
	C220.979233,85.673332 224.978699,81.111305 229.471375,81.117355 
	C233.371262,81.122597 235.672913,84.278671 235.832245,90.257706 
	C235.974182,95.583672 235.719467,100.925117 236.025391,106.237534 
	C236.083710,107.249931 237.825958,108.636787 239.015198,108.924126 
	C239.660446,109.080025 241.554214,107.286308 241.558762,106.365463 
	C241.594025,99.221443 241.874924,92.002434 240.965469,84.950333 
	C239.957932,77.137901 232.572998,73.896790 225.495239,77.438156 
	C224.206635,78.082893 222.984604,78.860657 220.983612,80.004860 
	C220.983612,75.771355 220.983612,72.182045 220.977875,67.653931 
M321.119354,84.902306 
	C321.114716,78.415710 321.256622,71.922913 320.982452,65.447716 
	C320.927216,64.143379 319.293854,62.905861 318.388062,61.637535 
	C317.350555,62.803032 315.428925,63.954868 315.410675,65.136116 
	C315.199982,78.771355 315.200470,92.412285 315.420380,106.047264 
	C315.438599,107.178001 317.459778,108.276436 318.550323,109.389877 
	C319.398346,108.233398 320.885712,107.125320 320.977600,105.911591 
	C321.285278,101.847214 321.094360,97.745094 321.094360,93.657425 
	C325.595490,97.571724 328.953369,101.969917 332.321930,106.359901 
	C334.458038,109.143723 336.930817,110.540855 340.871429,108.096184 
	C336.406281,102.129295 332.089355,96.360519 327.765747,90.582779 
	C331.948120,86.126190 335.783844,82.038948 339.619598,77.951706 
	C339.151794,77.467033 338.683990,76.982361 338.216187,76.497688 
	C329.715515,75.956100 328.048615,85.606590 321.431641,88.606842 
	C321.318054,87.568253 321.218109,86.654274 321.119354,84.902306 
M74.899597,92.790489 
	C72.348244,90.295769 70.007278,87.522301 67.182320,85.390076 
	C64.696945,83.514168 61.187519,82.845154 59.036232,80.724266 
	C57.339275,79.051300 55.923412,75.714859 56.433460,73.615448 
	C56.845356,71.920044 60.288372,69.979401 62.438637,69.916283 
	C65.726891,69.819763 69.059845,71.246269 72.373032,72.026047 
	C73.314384,67.202171 72.296974,66.030731 65.991249,64.743347 
	C58.850437,63.285473 52.290043,66.335876 50.228012,72.072823 
	C48.087704,78.027557 50.588219,83.520851 57.255741,87.268776 
	C59.571392,88.570442 62.004463,89.662842 64.380798,90.857010 
	C67.851830,92.601303 69.965157,95.188225 68.912498,99.260300 
	C67.844650,103.391129 64.514702,104.708557 60.798424,104.259964 
	C56.947323,103.795097 53.192123,102.535690 48.247620,101.348259 
	C48.841255,103.357697 48.859688,105.423988 49.896687,106.562599 
	C53.298420,110.297630 63.355728,110.813469 68.835197,107.878807 
	C74.064209,105.078278 76.218636,100.152527 74.899597,92.790489 
M145.032639,85.623970 
	C143.651443,79.896164 139.851288,76.820702 134.159836,76.219910 
	C128.055252,75.575493 123.001999,77.535652 119.792152,83.094902 
	C116.061935,89.555397 116.764130,100.169334 121.222878,105.293640 
	C125.101364,109.751068 134.303635,111.307922 141.257217,108.289986 
	C142.741302,107.645882 143.600479,105.561935 145.352295,103.392357 
	C139.190491,103.941177 134.737396,104.970963 130.424118,104.554070 
	C125.553917,104.083382 123.497894,99.985481 124.441673,94.063599 
	C129.141403,94.063599 133.933426,94.074158 138.725403,94.061142 
	C146.102356,94.041107 146.455521,93.616119 145.032639,85.623970 
M266.123138,76.171555 
	C261.027008,75.772751 256.508698,76.992477 253.182861,81.115936 
	C248.428116,87.010971 248.252472,98.748688 252.738098,104.631516 
	C256.584961,109.676620 266.249603,111.524933 273.468872,108.225151 
	C274.917480,107.563019 275.697845,105.438850 276.786285,103.988792 
	C259.732239,105.997726 254.774902,103.756691 256.449585,94.561211 
	C256.596039,94.482323 256.741302,94.336899 256.889160,94.334160 
	C262.368530,94.232590 267.851349,93.992233 273.326599,94.108070 
	C276.911346,94.183907 277.995819,92.629120 277.808838,89.279091 
	C277.422943,82.363899 274.235016,78.418465 266.123138,76.171555 
M193.566772,76.783447 
	C185.458176,80.069290 182.204681,87.537567 184.161362,98.373192 
	C185.964661,108.359436 196.699219,113.067276 205.289932,107.655769 
	C207.944199,105.983772 208.603409,103.932129 206.909760,100.904640 
	C202.130615,103.845810 197.494324,106.730431 192.595734,102.324142 
	C189.183640,99.254974 188.634445,89.251282 191.548798,84.868782 
	C196.133545,77.974403 201.602478,81.934898 207.053909,84.374237 
	C208.584778,80.862396 207.199280,78.544708 204.489685,77.765984 
	C201.255539,76.836510 197.733383,76.909187 193.566772,76.783447 
M300.716217,109.405540 
	C304.534973,108.103271 309.119080,107.440559 307.565948,101.024712 
	C302.428497,103.515114 297.410675,107.215736 292.448151,101.923584 
	C289.075836,98.327240 289.024902,88.640785 292.118073,84.382408 
	C296.821503,77.907097 302.093628,82.226143 307.184143,84.228989 
	C309.032867,80.004768 306.712219,78.387558 303.702118,77.185600 
	C298.244080,75.006142 292.245941,76.140343 288.440796,80.027145 
	C283.717194,84.852135 282.423065,95.057678 285.636383,102.143112 
	C288.275665,107.962914 292.114899,109.966103 300.716217,109.405540 
M175.817215,73.536880 
	C175.817413,71.042702 176.142578,68.489159 175.701660,66.075554 
	C175.415527,64.509163 174.231186,62.141613 173.066345,61.887341 
	C169.944336,61.205841 169.937729,63.795864 169.942566,66.084770 
	C169.969925,79.054420 169.870697,92.025505 170.074249,104.992020 
	C170.097183,106.452850 171.530411,108.886864 172.690414,109.142624 
	C175.816742,109.831947 175.836273,107.241730 175.829956,104.952827 
	C175.801926,94.809921 175.817276,84.666901 175.817215,73.536880 
M159.858826,98.447083 
	C159.858719,87.472679 159.948776,76.496544 159.738327,65.526184 
	C159.713501,64.231682 158.040039,62.968811 157.130814,61.691284 
	C156.095139,62.666603 154.171402,63.629478 154.157532,64.619110 
	C153.961884,78.583687 153.972977,92.552567 154.143433,106.517830 
	C154.155029,107.468224 156.087128,109.311050 156.687820,109.145805 
	C157.900955,108.812080 159.463760,107.522179 159.709854,106.375084 
	C160.187469,104.148972 159.855301,101.749107 159.858826,98.447083 
z"/>
<path fill="#CACDCF" opacity="1.000000" stroke="none" 
	d="
M97.009293,351.973755 
	C97.009323,345.478577 97.411835,339.445099 96.916039,333.486328 
	C96.151550,324.298401 101.462440,321.252930 109.387268,320.047852 
	C110.529175,319.874207 111.716919,319.991760 112.883446,319.991730 
	C166.550064,319.990082 220.216705,319.974945 273.883240,320.034424 
	C276.674896,320.037537 279.525543,320.427582 282.244568,321.075012 
	C287.879364,322.416687 290.934448,326.448944 290.962341,332.257538 
	C291.005585,341.257324 290.994049,350.257507 290.967194,359.257416 
	C290.948151,365.648285 287.317017,369.907288 281.044647,370.967285 
	C279.574432,371.215790 278.093872,371.586823 276.617706,371.588623 
	C257.143646,371.612122 237.669312,371.616882 218.195419,371.538330 
	C212.380783,371.514893 206.565628,371.030060 200.753494,371.080139 
	C173.452896,371.315338 146.153641,371.712402 118.852890,371.919952 
	C114.558128,371.952637 110.234444,371.490448 105.966904,370.930847 
	C100.985046,370.277588 97.163109,365.645874 97.024261,360.468536 
	C96.952805,357.803772 97.010139,355.135590 97.009293,351.973755 
z"/>
<path fill="#CBCED0" opacity="1.000000" stroke="none" 
	d="
M148.991959,192.114624 
	C148.991791,201.582672 149.027161,210.567535 148.980026,219.551956 
	C148.943726,226.471573 145.477127,229.955063 138.528717,229.994583 
	C128.213333,230.053284 117.897163,230.048920 107.581703,229.996338 
	C100.572777,229.960617 97.056496,226.531754 97.017578,219.667358 
	C96.958145,209.185593 96.955849,198.702942 97.020157,188.221237 
	C97.060753,181.604950 100.598923,178.058182 107.193466,178.010208 
	C116.510422,177.942429 125.828209,177.987778 135.145645,177.989944 
	C146.433762,177.992569 148.989380,180.512833 148.991959,192.114624 
z"/>
<path fill="#CACED0" opacity="1.000000" stroke="none" 
	d="
M219.489136,223.007919 
	C217.941345,228.024307 214.719650,230.027191 210.002686,230.014709 
	C199.359985,229.986542 188.716751,230.064316 178.074554,229.985229 
	C171.526520,229.936569 168.046768,226.351730 168.006897,219.678452 
	C167.944305,209.202332 167.943634,198.725296 168.006866,188.249191 
	C168.045319,181.876953 171.348633,178.199600 177.727341,178.066208 
	C188.531647,177.840286 199.346466,177.865524 210.152130,178.054672 
	C216.115692,178.159042 219.782944,181.468903 219.871719,187.233246 
	C220.053314,199.023834 219.745926,210.821945 219.489136,223.007919 
z"/>
<path fill="#CBCED0" opacity="1.000000" stroke="none" 
	d="
M142.120270,249.234070 
	C147.221954,251.346176 149.157501,254.846359 149.050903,259.975830 
	C148.847122,269.781830 148.999878,279.595001 148.989349,289.405212 
	C148.981110,297.077026 145.990082,300.680481 138.441727,300.897705 
	C127.809151,301.203705 117.156715,301.155640 106.521370,300.900391 
	C100.407104,300.753601 97.065987,297.031464 97.024620,291.019073 
	C96.951401,280.378021 96.953957,269.735779 97.024345,259.094666 
	C97.066330,252.748413 100.608673,249.045792 106.805031,249.014435 
	C118.441833,248.955536 130.079514,249.070877 142.120270,249.234070 
z"/>
<path fill="#CACDD0" opacity="1.000000" stroke="none" 
	d="
M290.987000,199.010788 
	C290.986176,205.999649 291.045197,212.491516 290.968536,218.981796 
	C290.883545,226.177338 287.020050,229.981201 279.840546,230.003571 
	C269.687805,230.035202 259.534607,230.056091 249.382126,229.994415 
	C242.474640,229.952423 239.030624,226.453552 238.996292,219.477051 
	C238.945526,209.158005 238.945343,198.838348 238.996521,188.519302 
	C239.031082,181.547211 242.489182,178.043869 249.385208,178.006302 
	C259.537781,177.951004 269.691223,177.937790 279.843567,178.009659 
	C287.304352,178.062469 290.846863,181.625336 290.976105,189.026138 
	C291.031342,192.187561 290.986420,195.350723 290.987000,199.010788 
z"/>
<path fill="#CBCED0" opacity="1.000000" stroke="none" 
	d="
M188.011017,248.979706 
	C195.326950,248.980438 202.145966,248.916824 208.963196,248.999191 
	C216.510864,249.090378 219.906662,252.477036 219.963684,260.026917 
	C220.039032,270.004242 220.036728,279.982941 219.963654,289.960327 
	C219.909531,297.348419 216.318954,300.912598 208.862762,300.972595 
	C199.218094,301.050262 189.571442,301.073212 179.927277,300.969330 
	C171.198181,300.875336 167.998428,297.527740 167.987900,288.791534 
	C167.976089,278.979950 167.941895,269.168030 168.004822,259.356842 
	C168.048950,252.476364 171.565018,249.069641 178.533295,248.988647 
	C181.526276,248.953857 184.519958,248.980820 188.011017,248.979706 
z"/>
<path fill="#CACDCF" opacity="1.000000" stroke="none" 
	d="
M245.093109,249.517059 
	C257.597687,249.237976 269.724609,248.920395 281.843750,249.106979 
	C287.146118,249.188629 290.868866,253.571548 290.942017,259.111328 
	C291.080353,269.584290 291.067780,280.061249 290.950562,290.534698 
	C290.880219,296.820831 287.242065,300.699615 280.614868,300.888153 
	C269.982513,301.190582 259.331726,301.143524 248.695892,300.913940 
	C242.325607,300.776489 239.039154,297.088135 239.001526,290.712189 
	C238.940674,280.404022 239.098343,270.093445 238.930328,259.787659 
	C238.854156,255.115036 240.520172,251.756897 245.093109,249.517059 
z"/>
<path fill="#CBCED0" opacity="1.000000" stroke="none" 
	d="
M313.338165,227.785233 
	C312.027283,224.829376 310.219543,222.169128 310.127655,219.450882 
	C309.779541,209.153900 309.954773,198.837997 309.999084,188.529434 
	C310.027771,181.853287 313.324280,178.190048 319.951660,178.066498 
	C330.589233,177.868225 341.234589,177.911041 351.873901,178.054901 
	C357.407928,178.129715 361.730103,182.474991 361.875275,188.441925 
	C362.125916,198.744507 362.127502,209.061768 361.884552,219.364639 
	C361.728455,225.983780 357.257568,229.946503 350.576508,229.977676 
	C340.434235,230.024979 330.289459,230.099014 320.150879,229.899551 
	C317.965729,229.856567 315.802490,228.698593 313.338165,227.785233 
z"/>
<path fill="#CBCED0" opacity="1.000000" stroke="none" 
	d="
M65.748909,229.991791 
	C56.122066,229.992020 46.964600,230.019791 37.807396,229.983017 
	C29.829254,229.950974 26.072369,226.302505 26.033747,218.503860 
	C25.985098,208.680756 25.971403,198.856873 26.040535,189.034012 
	C26.086935,182.441391 30.397453,178.079605 36.952614,178.027374 
	C46.941822,177.947784 56.932552,177.949371 66.921814,178.025208 
	C74.085159,178.079575 77.931702,181.988068 77.979691,189.215668 
	C78.043816,198.872086 78.024612,208.529343 77.988457,218.186050 
	C77.956398,226.748962 74.989235,229.690842 65.748909,229.991791 
z"/>
<path fill="#CBCED0" opacity="1.000000" stroke="none" 
	d="
M317.054565,300.470642 
	C311.805115,298.563660 309.792328,295.197266 309.916901,289.959808 
	C310.158325,279.808441 309.953400,269.647156 309.999725,259.490265 
	C310.030121,252.825729 313.357361,249.174713 320.007141,249.057587 
	C330.660461,248.869934 341.321075,248.897400 351.975403,249.053268 
	C357.466827,249.133591 361.750580,253.573425 361.883423,259.558167 
	C362.112518,269.876556 362.140167,280.208740 361.873779,290.525391 
	C361.708801,296.913361 357.213440,300.960052 350.871552,300.945953 
	C339.727051,300.921173 328.582916,300.744720 317.054565,300.470642 
z"/>
<path fill="#CBCED0" opacity="1.000000" stroke="none" 
	d="
M33.891144,300.753723 
	C28.231949,298.278168 25.750643,294.433014 25.941917,288.458588 
	C26.239965,279.148987 25.986208,269.822632 26.032141,260.503723 
	C26.069572,252.909042 29.818811,249.063507 37.288559,249.016388 
	C47.106552,248.954468 56.925591,248.949539 66.743500,249.017700 
	C74.663940,249.072693 77.973381,252.425186 77.991020,260.249725 
	C78.012772,269.901672 78.020897,279.553741 77.988678,289.205597 
	C77.963646,296.704926 73.878944,300.883636 66.241814,300.941437 
	C55.593624,301.022034 44.943901,300.899780 33.891144,300.753723 
z"/>
<path fill="#F2F7FF" opacity="1.000000" stroke="none" 
	d="
M88.883812,118.610687 
	C87.419975,119.696411 85.977242,120.332001 84.534508,120.967590 
	C84.045525,119.689529 83.143486,118.415207 83.131859,117.132820 
	C83.023201,105.140205 83.001328,93.145409 83.148666,81.153633 
	C83.167503,79.619972 84.297920,78.099960 84.913391,76.573631 
	C86.368561,77.491470 87.823723,78.409302 89.851715,79.688438 
	C89.795059,79.724983 90.454185,79.299217 91.113960,78.874458 
	C100.489914,72.838242 109.775749,77.285919 110.935837,88.423485 
	C111.159149,90.567345 111.019875,92.748062 111.066391,94.911377 
	C111.282837,104.977577 102.016129,114.904381 88.904922,105.988449 
	C88.904922,110.452553 88.904922,114.306557 88.883812,118.610687 
M91.425629,84.050522 
	C87.463409,87.044609 89.104126,91.354546 88.959564,95.161690 
	C88.773666,100.057381 92.653328,104.433121 97.036095,104.758911 
	C101.028206,105.055672 104.435791,101.503090 105.021133,96.184006 
	C105.255730,94.052193 105.263626,91.857590 105.058517,89.721931 
	C104.264717,81.456467 99.190018,79.077599 91.425629,84.050522 
z"/>
<path fill="#F3F7FF" opacity="1.000000" stroke="none" 
	d="
M220.980743,68.123329 
	C220.983612,72.182045 220.983612,75.771355 220.983612,80.004860 
	C222.984604,78.860657 224.206635,78.082893 225.495239,77.438156 
	C232.572998,73.896790 239.957932,77.137901 240.965469,84.950333 
	C241.874924,92.002434 241.594025,99.221443 241.558762,106.365463 
	C241.554214,107.286308 239.660446,109.080025 239.015198,108.924126 
	C237.825958,108.636787 236.083710,107.249931 236.025391,106.237534 
	C235.719467,100.925117 235.974182,95.583672 235.832245,90.257706 
	C235.672913,84.278671 233.371262,81.122597 229.471375,81.117355 
	C224.978699,81.111305 220.979233,85.673332 220.957443,90.865753 
	C220.936478,95.862144 221.109695,100.868134 220.820465,105.848000 
	C220.754456,106.984871 219.139603,108.031799 218.237610,109.120117 
	C217.196762,108.006058 215.267960,106.905815 215.250381,105.775833 
	C215.040543,92.288620 215.052322,78.796173 215.226990,65.307961 
	C215.241821,64.163589 216.841705,63.039745 217.705231,61.906372 
	C218.789536,62.989510 220.019760,63.969398 220.892319,65.202385 
	C221.287155,65.760338 220.971298,66.821213 220.980743,68.123329 
z"/>
<path fill="#F1F6FF" opacity="1.000000" stroke="none" 
	d="
M321.118744,85.321304 
	C321.218109,86.654274 321.318054,87.568253 321.431641,88.606842 
	C328.048615,85.606590 329.715515,75.956100 338.216187,76.497688 
	C338.683990,76.982361 339.151794,77.467033 339.619598,77.951706 
	C335.783844,82.038948 331.948120,86.126190 327.765747,90.582779 
	C332.089355,96.360519 336.406281,102.129295 340.871429,108.096184 
	C336.930817,110.540855 334.458038,109.143723 332.321930,106.359901 
	C328.953369,101.969917 325.595490,97.571724 321.094360,93.657425 
	C321.094360,97.745094 321.285278,101.847214 320.977600,105.911591 
	C320.885712,107.125320 319.398346,108.233398 318.550323,109.389877 
	C317.459778,108.276436 315.438599,107.178001 315.420380,106.047264 
	C315.200470,92.412285 315.199982,78.771355 315.410675,65.136116 
	C315.428925,63.954868 317.350555,62.803032 318.388062,61.637535 
	C319.293854,62.905861 320.927216,64.143379 320.982452,65.447716 
	C321.256622,71.922913 321.114716,78.415710 321.118744,85.321304 
z"/>
<path fill="#F4F8FF" opacity="1.000000" stroke="none" 
	d="
M75.008202,93.153702 
	C76.218636,100.152527 74.064209,105.078278 68.835197,107.878807 
	C63.355728,110.813469 53.298420,110.297630 49.896687,106.562599 
	C48.859688,105.423988 48.841255,103.357697 48.247620,101.348259 
	C53.192123,102.535690 56.947323,103.795097 60.798424,104.259964 
	C64.514702,104.708557 67.844650,103.391129 68.912498,99.260300 
	C69.965157,95.188225 67.851830,92.601303 64.380798,90.857010 
	C62.004463,89.662842 59.571392,88.570442 57.255741,87.268776 
	C50.588219,83.520851 48.087704,78.027557 50.228012,72.072823 
	C52.290043,66.335876 58.850437,63.285473 65.991249,64.743347 
	C72.296974,66.030731 73.314384,67.202171 72.373032,72.026047 
	C69.059845,71.246269 65.726891,69.819763 62.438637,69.916283 
	C60.288372,69.979401 56.845356,71.920044 56.433460,73.615448 
	C55.923412,75.714859 57.339275,79.051300 59.036232,80.724266 
	C61.187519,82.845154 64.696945,83.514168 67.182320,85.390076 
	C70.007278,87.522301 72.348244,90.295769 75.008202,93.153702 
z"/>
<path fill="#F2F7FF" opacity="1.000000" stroke="none" 
	d="
M145.114441,86.013298 
	C146.455521,93.616119 146.102356,94.041107 138.725403,94.061142 
	C133.933426,94.074158 129.141403,94.063599 124.441673,94.063599 
	C123.497894,99.985481 125.553917,104.083382 130.424118,104.554070 
	C134.737396,104.970963 139.190491,103.941177 145.352295,103.392357 
	C143.600479,105.561935 142.741302,107.645882 141.257217,108.289986 
	C134.303635,111.307922 125.101364,109.751068 121.222878,105.293640 
	C116.764130,100.169334 116.061935,89.555397 119.792152,83.094902 
	C123.001999,77.535652 128.055252,75.575493 134.159836,76.219910 
	C139.851288,76.820702 143.651443,79.896164 145.114441,86.013298 
M138.938690,84.752029 
	C136.752640,80.570862 132.997482,79.894852 129.121368,81.207870 
	C125.641785,82.386574 123.418449,85.072861 124.133644,89.562614 
	C129.319321,89.562614 134.377350,89.562614 139.930374,89.562614 
	C139.667252,87.983147 139.459061,86.733414 138.938690,84.752029 
z"/>
<path fill="#F2F7FF" opacity="1.000000" stroke="none" 
	d="
M266.533997,76.203819 
	C274.235016,78.418465 277.422943,82.363899 277.808838,89.279091 
	C277.995819,92.629120 276.911346,94.183907 273.326599,94.108070 
	C267.851349,93.992233 262.368530,94.232590 256.889160,94.334160 
	C256.741302,94.336899 256.596039,94.482323 256.449585,94.561203 
	C254.774902,103.756691 259.732239,105.997726 276.786285,103.988792 
	C275.697845,105.438850 274.917480,107.563019 273.468872,108.225151 
	C266.249603,111.524933 256.584961,109.676620 252.738098,104.631516 
	C248.252472,98.748688 248.428116,87.010971 253.182861,81.115936 
	C256.508698,76.992477 261.027008,75.772751 266.533997,76.203819 
M262.578308,89.886543 
	C265.625610,89.886543 268.672913,89.886543 271.748505,89.886543 
	C271.204498,82.972397 268.707489,80.475136 263.511871,80.768974 
	C258.660156,81.043350 256.080658,84.096741 256.338379,89.885422 
	C258.081116,89.885422 259.864136,89.885422 262.578308,89.886543 
z"/>
<path fill="#F1F6FF" opacity="1.000000" stroke="none" 
	d="
M193.951385,76.665604 
	C197.733383,76.909187 201.255539,76.836510 204.489685,77.765984 
	C207.199280,78.544708 208.584778,80.862396 207.053909,84.374237 
	C201.602478,81.934898 196.133545,77.974403 191.548798,84.868782 
	C188.634445,89.251282 189.183640,99.254974 192.595734,102.324142 
	C197.494324,106.730431 202.130615,103.845810 206.909760,100.904640 
	C208.603409,103.932129 207.944199,105.983772 205.289932,107.655769 
	C196.699219,113.067276 185.964661,108.359436 184.161362,98.373192 
	C182.204681,87.537567 185.458176,80.069290 193.951385,76.665604 
z"/>
<path fill="#F2F7FF" opacity="1.000000" stroke="none" 
	d="
M300.319946,109.501656 
	C292.114899,109.966103 288.275665,107.962914 285.636383,102.143112 
	C282.423065,95.057678 283.717194,84.852135 288.440796,80.027145 
	C292.245941,76.140343 298.244080,75.006142 303.702118,77.185600 
	C306.712219,78.387558 309.032867,80.004768 307.184143,84.228989 
	C302.093628,82.226143 296.821503,77.907097 292.118073,84.382408 
	C289.024902,88.640785 289.075836,98.327240 292.448151,101.923584 
	C297.410675,107.215736 302.428497,103.515114 307.565948,101.024712 
	C309.119080,107.440559 304.534973,108.103271 300.319946,109.501656 
z"/>
<path fill="#EEF5FF" opacity="1.000000" stroke="none" 
	d="
M175.817078,74.030396 
	C175.817276,84.666901 175.801926,94.809921 175.829956,104.952827 
	C175.836273,107.241730 175.816742,109.831947 172.690414,109.142624 
	C171.530411,108.886864 170.097183,106.452850 170.074249,104.992020 
	C169.870697,92.025505 169.969925,79.054420 169.942566,66.084770 
	C169.937729,63.795864 169.944336,61.205841 173.066345,61.887341 
	C174.231186,62.141613 175.415527,64.509163 175.701660,66.075554 
	C176.142578,68.489159 175.817413,71.042702 175.817078,74.030396 
z"/>
<path fill="#EEF5FF" opacity="1.000000" stroke="none" 
	d="
M159.858734,98.934158 
	C159.855301,101.749107 160.187469,104.148972 159.709854,106.375084 
	C159.463760,107.522179 157.900955,108.812080 156.687820,109.145805 
	C156.087128,109.311050 154.155029,107.468224 154.143433,106.517830 
	C153.972977,92.552567 153.961884,78.583687 154.157532,64.619110 
	C154.171402,63.629478 156.095139,62.666603 157.130814,61.691284 
	C158.040039,62.968811 159.713501,64.231682 159.738327,65.526184 
	C159.948776,76.496544 159.858719,87.472679 159.858734,98.934158 
z"/>
<path fill="#5D9AFF" opacity="1.000000" stroke="none" 
	d="
M91.712135,83.781113 
	C99.190018,79.077599 104.264717,81.456467 105.058517,89.721931 
	C105.263626,91.857590 105.255730,94.052193 105.021133,96.184006 
	C104.435791,101.503090 101.028206,105.055672 97.036095,104.758911 
	C92.653328,104.433121 88.773666,100.057381 88.959564,95.161690 
	C89.104126,91.354546 87.463409,87.044609 91.712135,83.781113 
z"/>
<path fill="#619CFF" opacity="1.000000" stroke="none" 
	d="
M139.094788,85.117859 
	C139.459061,86.733414 139.667252,87.983147 139.930374,89.562614 
	C134.377350,89.562614 129.319321,89.562614 124.133644,89.562614 
	C123.418449,85.072861 125.641785,82.386574 129.121368,81.207870 
	C132.997482,79.894852 136.752640,80.570862 139.094788,85.117859 
z"/>
<path fill="#629DFF" opacity="1.000000" stroke="none" 
	d="
M262.112732,89.885986 
	C259.864136,89.885422 258.081116,89.885422 256.338379,89.885422 
	C256.080658,84.096741 258.660156,81.043350 263.511871,80.768974 
	C268.707489,80.475136 271.204498,82.972397 271.748505,89.886543 
	C268.672913,89.886543 265.625610,89.886543 262.112732,89.885986 
z"/>
</svg>